<svg xmlns="http://www.w3.org/2000/svg" width="130" height="130" viewBox="0 0 130 130">
  <rect id="Rechteck_226" data-name="Rechteck 226" width="130" height="130" rx="19" fill="#fff"/>
  <path id="Icon_feather-hexagon" data-name="Icon feather-hexagon" d="M87.327,67.415V30.6a9.2,9.2,0,0,0-4.6-7.961L50.515,4.236a9.2,9.2,0,0,0-9.2,0L9.1,22.642A9.2,9.2,0,0,0,4.5,30.6V67.415a9.2,9.2,0,0,0,4.6,7.961l32.21,18.406a9.2,9.2,0,0,0,9.2,0l32.21-18.406A9.2,9.2,0,0,0,87.327,67.415Z" transform="translate(19.086 15.991)" fill="rgba(12,243,174,0.61)"/>
  <g id="Gruppe_214" data-name="Gruppe 214" transform="translate(4257.207 -899.666) rotate(-22)">
    <g id="Icon_feather-cpu" data-name="Icon feather-cpu" transform="translate(-4275 -702.137)">
      <path id="Pfad_143" data-name="Pfad 143" d="M10.683,6h28.1a4.683,4.683,0,0,1,4.683,4.683v28.1a4.683,4.683,0,0,1-4.683,4.683h-28.1A4.683,4.683,0,0,1,6,38.78v-28.1A4.683,4.683,0,0,1,10.683,6Z" transform="translate(1.024 1.024)" fill="none" stroke="#fff" stroke-linecap="round" stroke-linejoin="round" stroke-width="3"/>
      <path id="Pfad_144" data-name="Pfad 144" d="M13.5,13.5H27.549V27.549H13.5Z" transform="translate(5.231 5.231)" fill="none" stroke="#fff" stroke-linecap="round" stroke-linejoin="round" stroke-width="3"/>
      <path id="Pfad_145" data-name="Pfad 145" d="M13.5,1.5V8.524" transform="translate(5.231 -1.5)" fill="none" stroke="#fff" stroke-linecap="round" stroke-linejoin="round" stroke-width="3"/>
      <path id="Pfad_146" data-name="Pfad 146" d="M22.5,1.5V8.524" transform="translate(10.28 -1.5)" fill="none" stroke="#fff" stroke-linecap="round" stroke-linejoin="round" stroke-width="3"/>
      <path id="Pfad_147" data-name="Pfad 147" d="M13.5,30v7.024" transform="translate(5.231 14.487)" fill="none" stroke="#fff" stroke-linecap="round" stroke-linejoin="round" stroke-width="3"/>
      <path id="Pfad_148" data-name="Pfad 148" d="M22.5,30v7.024" transform="translate(10.28 14.487)" fill="none" stroke="#fff" stroke-linecap="round" stroke-linejoin="round" stroke-width="3"/>
      <path id="Pfad_149" data-name="Pfad 149" d="M30,13.5h7.024" transform="translate(14.487 5.231)" fill="none" stroke="#fff" stroke-linecap="round" stroke-linejoin="round" stroke-width="3"/>
      <path id="Pfad_150" data-name="Pfad 150" d="M30,21h7.024" transform="translate(14.487 9.439)" fill="none" stroke="#fff" stroke-linecap="round" stroke-linejoin="round" stroke-width="3"/>
      <path id="Pfad_151" data-name="Pfad 151" d="M1.5,13.5H8.524" transform="translate(-1.5 5.231)" fill="none" stroke="#fff" stroke-linecap="round" stroke-linejoin="round" stroke-width="3"/>
      <path id="Pfad_152" data-name="Pfad 152" d="M1.5,21H8.524" transform="translate(-1.5 9.439)" fill="none" stroke="#fff" stroke-linecap="round" stroke-linejoin="round" stroke-width="3"/>
    </g>
  </g>
  <g id="Gruppe_213" data-name="Gruppe 213" transform="translate(4258.207 -901.666) rotate(-22)">
    <g id="Icon_feather-cpu-2" data-name="Icon feather-cpu" transform="translate(-4275 -702.137)">
      <path id="Pfad_143-2" data-name="Pfad 143" d="M10.683,6h28.1a4.683,4.683,0,0,1,4.683,4.683v28.1a4.683,4.683,0,0,1-4.683,4.683h-28.1A4.683,4.683,0,0,1,6,38.78v-28.1A4.683,4.683,0,0,1,10.683,6Z" transform="translate(1.024 1.024)" fill="none" stroke="#000" stroke-linecap="round" stroke-linejoin="round" stroke-width="3"/>
      <path id="Pfad_144-2" data-name="Pfad 144" d="M13.5,13.5H27.549V27.549H13.5Z" transform="translate(5.231 5.231)" fill="none" stroke="#000" stroke-linecap="round" stroke-linejoin="round" stroke-width="3"/>
      <path id="Pfad_145-2" data-name="Pfad 145" d="M13.5,1.5V8.524" transform="translate(5.231 -1.5)" fill="none" stroke="#000" stroke-linecap="round" stroke-linejoin="round" stroke-width="3"/>
      <path id="Pfad_146-2" data-name="Pfad 146" d="M22.5,1.5V8.524" transform="translate(10.28 -1.5)" fill="none" stroke="#000" stroke-linecap="round" stroke-linejoin="round" stroke-width="3"/>
      <path id="Pfad_147-2" data-name="Pfad 147" d="M13.5,30v7.024" transform="translate(5.231 14.487)" fill="none" stroke="#000" stroke-linecap="round" stroke-linejoin="round" stroke-width="3"/>
      <path id="Pfad_148-2" data-name="Pfad 148" d="M22.5,30v7.024" transform="translate(10.28 14.487)" fill="none" stroke="#000" stroke-linecap="round" stroke-linejoin="round" stroke-width="3"/>
      <path id="Pfad_149-2" data-name="Pfad 149" d="M30,13.5h7.024" transform="translate(14.487 5.231)" fill="none" stroke="#000" stroke-linecap="round" stroke-linejoin="round" stroke-width="3"/>
      <path id="Pfad_150-2" data-name="Pfad 150" d="M30,21h7.024" transform="translate(14.487 9.439)" fill="none" stroke="#000" stroke-linecap="round" stroke-linejoin="round" stroke-width="3"/>
      <path id="Pfad_151-2" data-name="Pfad 151" d="M1.5,13.5H8.524" transform="translate(-1.5 5.231)" fill="none" stroke="#000" stroke-linecap="round" stroke-linejoin="round" stroke-width="3"/>
      <path id="Pfad_152-2" data-name="Pfad 152" d="M1.5,21H8.524" transform="translate(-1.5 9.439)" fill="none" stroke="#000" stroke-linecap="round" stroke-linejoin="round" stroke-width="3"/>
    </g>
  </g>
</svg>
